<?xml version="1.0" encoding="utf-8"?>
<svg version="1.1" id="Layer_1" xmlns="http://www.w3.org/2000/svg" xmlns:xlink="http://www.w3.org/1999/xlink" x="0px" y="0px"
	 viewBox="0 312.6 595 216.6" enable-background="new 0 312.6 595 216.6" xml:space="preserve">
<line id="line_1_" fill="none" stroke="#000000" stroke-width="0.5" stroke-miterlimit="10" x1="0" y1="528.9" x2="595" y2="528.9"/>
<g id="can">
	<circle fill="none" stroke="#000000" stroke-width="5" stroke-miterlimit="10" cx="527.4" cy="419.1" r="64.3"/>
	<g>
		<path d="M562,392.6c-4.7,8.1-25.8,29.8-33.7,25.1c-8-4.7,0-33.7,4.7-41.8c4.7-8.1,13.7-8.8,21.8-4.1
			C562.7,376.5,566.6,384.5,562,392.6z"/>
		<circle cx="524.3" cy="424.6" r="4.9"/>
	</g>
</g>
<g id="CAN">
	<path fill="#F28D22" d="M143.8,480.4c0.1,0,0.1,0,0.3,0c0.3,0,0.5,0,1,0c18.4,0,27.6-0.3,36.9-0.4c9.3-0.3,18.6-0.4,37-0.4h0.4
		c31.5-0.8,46.2-24,28.5-52.1c-18-27.7-22.5-24.4-38.8-50.7c-7.4-13.6-17.5-20.7-28-20.7c-10.3,0-20.8,6.9-29.3,21.3
		c-16.2,27.4-14.7,27.1-33,52.9C100.5,456.2,113.2,480.4,143.8,480.4"/>
	<path fill="#EA5297" d="M403.6,364.5c-7.7,0-15.6,2.5-21.8,5.8c-13.2,4.3-19.5,6.3-26,6.3c-6.3,0-12.6-1.8-25.1-5.5
		c-6.4-3.2-14.8-5.9-22.9-5.9c-9.9,0-19.1,4.1-23.9,16.3c-5.6,17.4-4.9,26.2-4.4,34.7c1,8.5,1.9,16.9,7.1,33.6
		c4.7,12.8,14,17.1,23.9,17.1c6.9,0,13.8-2.1,19.9-5.1c12.2-3.4,18.6-5.2,24.7-5.2c6.9,0,13.2,2.2,26.7,6.4c5.6,3,12.3,5.1,18.9,5.1
		c10.6,0,20.7-4.9,25.6-18.2c5.3-16.9,5.8-25.2,6.4-33.7c0.3-8.5,0.8-17.1-4.4-34.7C423.6,368.9,413.9,364.5,403.6,364.5"/>
	<path fill="#E52521" d="M69.8,484.1c0.1,0,0.1,0,0.3,0c9.2,0,13.6-5.9,12.8-15.1c-0.8-9-5.2-16.3-10.4-23.4
		c-13.2-17.7-13-23.4,0.8-40.7c2.2-2.7,4.5-5.2,6.7-8.1c3.4-4.5,7-8.9,9.9-13.7c6.3-10.8,3.3-21.9-7.1-28.8
		c-5.3-3.6-11.1-4.8-17-4.8c-2.9,0-5.9,0.3-8.8,0.8c-30.4,5.3-54.3,34.1-56.1,66.1c1.9,6.9,2.7,14.1,5.9,20.4
		c10.6,20.7,27.1,35.4,48.1,44.7C59.4,483.5,64.7,484.1,69.8,484.1"/>
</g>
<line id="line" fill="none" stroke="#000000" stroke-width="0.5" stroke-miterlimit="10" x1="0" y1="312.8" x2="595" y2="312.8"/>
</svg>
